<svg width="25" height="25" viewBox="0 0 25 25" fill="none" xmlns="http://www.w3.org/2000/svg">
<path d="M9.3535 7.88067L9.3535 7.88071L9.35973 7.88055C9.89389 7.86708 10.4385 8.04731 11.0025 8.26725C11.0727 8.29462 11.1445 8.3231 11.2168 8.35183C11.4198 8.43237 11.6274 8.5148 11.8188 8.57995C12.078 8.66819 12.3659 8.74647 12.6478 8.74647C12.9363 8.74647 13.2406 8.65366 13.5109 8.55693C13.651 8.50682 13.8241 8.43897 13.999 8.37049C14.1406 8.31501 14.2832 8.25911 14.4102 8.21188C15.0467 7.97517 15.7288 7.77965 16.4508 7.83591L16.4508 7.83593L16.4558 7.83627C17.0055 7.87354 18.3905 8.02584 19.4293 9.20635C18.7169 9.7631 17.4653 11.0393 17.4831 13.1206L17.4831 13.1217C17.5011 14.7983 18.2406 15.9295 18.98 16.6343C19.3709 17.0068 19.7631 17.2621 20.0532 17.4223C19.8712 17.9187 19.4943 18.8143 18.8691 19.7275L18.8685 19.7284C18.4474 20.3463 18.052 20.9086 17.608 21.3233C17.1739 21.7286 16.7296 21.9584 16.2111 21.9666L16.207 21.9667C15.6585 21.9799 15.3052 21.8274 14.8426 21.6275L14.836 21.6247C14.3551 21.417 13.7876 21.1765 12.9184 21.1765C12.0513 21.1765 11.4753 21.3983 10.9824 21.6071C10.9499 21.6208 10.918 21.6344 10.8866 21.6478C10.4503 21.8336 10.1112 21.9779 9.62051 21.9993C9.15082 22.0139 8.69608 21.7826 8.22273 21.3388C7.74739 20.8932 7.31541 20.2923 6.89007 19.6816C6.07106 18.4966 5.34131 16.8112 5.03187 15.0572C4.72169 13.2991 4.84374 11.5345 5.64641 10.141L5.64669 10.1405C6.44178 8.75642 7.84395 7.8999 9.3535 7.88067ZM13.9342 4.34316L13.9362 4.34087C14.4603 3.7307 15.2742 3.25252 16.0172 3.07372C15.9708 3.91195 15.6041 4.74033 15.0774 5.37239C14.5441 6.01244 13.7513 6.50143 12.9746 6.59966C13.014 5.76995 13.4335 4.91889 13.9342 4.34316Z" fill="#2964FC" stroke="white"/>
</svg>
