<svg width="25" height="24" viewBox="0 0 25 24" fill="none" xmlns="http://www.w3.org/2000/svg">
<path d="M8.38798 11.9818C8.38801 11.1935 8.62284 10.4229 9.06266 9.76799C9.50248 9.11303 10.1275 8.60319 10.8583 8.30317C11.5891 8.00315 12.3928 7.92648 13.1673 8.0829C13.9419 8.23932 14.6524 8.62176 15.2087 9.1817C15.765 9.74164 16.142 10.4538 16.2918 11.2278C16.4416 12.0019 16.3575 12.8028 16.0501 13.5291C15.7428 14.2554 15.2261 14.8742 14.5655 15.307C13.905 15.7398 13.1305 15.9671 12.3402 15.96C11.8171 15.96 11.299 15.857 10.8159 15.6569C10.3327 15.4569 9.89382 15.1636 9.52445 14.7941C9.15508 14.4245 8.86245 13.9859 8.66333 13.5033C8.46422 13.0207 8.36253 12.5037 8.3641 11.9818M6.21485 11.9818C6.21249 13.1937 6.57073 14.3789 7.2442 15.3875C7.91766 16.3961 8.87606 17.1827 9.99799 17.6475C11.1199 18.1123 12.3549 18.2346 13.5466 17.9987C14.7382 17.7629 15.8328 17.1796 16.6919 16.3227C17.5509 15.4658 18.1357 14.3738 18.3721 13.1851C18.6085 11.9965 18.486 10.7645 18.02 9.64539C17.554 8.52624 16.7655 7.57022 15.7544 6.89843C14.7433 6.22663 13.5551 5.86928 12.3402 5.87163C10.7166 5.87478 9.16046 6.51954 8.01241 7.66474C6.86437 8.80994 6.218 10.3623 6.21485 11.9818ZM17.2835 5.62151C17.2811 5.90469 17.3632 6.18219 17.5192 6.41879C17.6752 6.6554 17.8981 6.84045 18.1597 6.95045C18.4213 7.06046 18.7098 7.09047 18.9885 7.03667C19.2672 6.98288 19.5236 6.8477 19.7252 6.64829C19.9268 6.44889 20.0644 6.19424 20.1207 5.91667C20.177 5.6391 20.1493 5.35111 20.0412 5.08925C19.9331 4.82738 19.7495 4.60345 19.5136 4.44587C19.2777 4.28829 19.0002 4.20415 18.7163 4.20414C18.3384 4.20413 17.9757 4.35308 17.7074 4.61855C17.439 4.88402 17.2867 5.24451 17.2835 5.62151ZM7.5641 21.6771C6.80585 21.6717 6.05433 21.5347 5.34321 21.2721C4.82877 21.0827 4.35995 20.7876 3.96709 20.406C3.57422 20.0244 3.26608 19.5647 3.06261 19.0567C2.34619 17.2463 2.585 8.61109 2.6447 7.21754C2.59516 5.87489 3.07528 4.56638 3.98201 3.57288C5.17604 2.38181 6.72828 1.8101 17.2238 2.27461C18.5404 2.23413 19.8224 2.69878 20.8059 3.57288C21.9999 4.76394 22.5969 6.32424 22.1074 16.7818C22.0979 17.5593 21.9524 18.3292 21.6775 19.0567C20.591 21.8319 18.0954 22.2131 7.54022 21.7247M7.4447 0.142602C5.58537 0.112164 3.78702 0.80409 2.42977 2.07213C1.15858 3.42601 0.464932 5.21989 0.495446 7.07461C0.495446 8.26568 0.125297 17.4012 1.05664 19.7833C1.3579 20.5775 1.82434 21.2992 2.42528 21.9007C3.02621 22.5021 3.74802 22.9699 4.54321 23.2731C5.47228 23.6184 6.45341 23.8036 7.4447 23.821C18.0716 24.3094 22.0238 24.0473 23.6835 19.7833C24.0405 18.8619 24.2422 17.888 24.2805 16.9009C24.7701 6.24086 24.2089 3.93019 22.3462 2.07213C20.8298 0.607118 19.0984 -0.393378 7.4447 0.142602Z" fill="#62688F"/>
</svg>
