<svg width="24" height="24" viewBox="0 0 24 24" fill="none" xmlns="http://www.w3.org/2000/svg">
<g clip-path="url(#clip0_3681_56759)">
<path d="M6.00002 23.9994H2.45917e-05V8.39944H6.00002V23.9994ZM2.92802 5.90344C2.54194 5.90187 2.15994 5.82426 1.80385 5.67506C1.44775 5.52585 1.12453 5.30797 0.852638 5.03385C0.580748 4.75973 0.365512 4.43475 0.21922 4.07744C0.0729282 3.72014 -0.00155449 3.33753 2.45917e-05 2.95144C2.45917e-05 2.17488 0.308509 1.43014 0.857616 0.881029C1.40672 0.331922 2.15147 0.0234375 2.92802 0.0234375C3.70458 0.0234375 4.44933 0.331922 4.99843 0.881029C5.54754 1.43014 5.85602 2.17488 5.85602 2.95144C5.8576 3.33753 5.78312 3.72014 5.63683 4.07744C5.49054 4.43475 5.2753 4.75973 5.00341 5.03385C4.73152 5.30797 4.4083 5.52585 4.0522 5.67506C3.69611 5.82426 3.31411 5.90187 2.92802 5.90344ZM24 23.9994H19.2V15.5994C19.2 13.2954 18.18 11.9994 16.356 11.9994C14.532 11.9994 13.2 13.3554 13.2 15.5994V23.9994H8.40003V8.39944H13.2V10.1514C13.7277 9.33459 14.4531 8.66429 15.309 8.20276C16.165 7.74123 17.1236 7.50343 18.096 7.51144C21.492 7.51144 24 9.59944 24 13.8714V23.9994Z" fill="#62688F"/>
</g>
<defs>
<clipPath id="clip0_3681_56759">
<rect width="24" height="24" fill="white"/>
</clipPath>
</defs>
</svg>
