<svg width="25" height="25" viewBox="0 0 25 25" fill="none" xmlns="http://www.w3.org/2000/svg">
<path d="M8.98899 19.3262L14.414 13.9012L15.8603 15.3475L8.98899 19.3262ZM14.414 11.0988L8.98786 5.67264L15.8612 9.65162L14.414 11.0988ZM3.625 21.5977V21.5968L3.625 3.4034C3.625 3.40336 3.625 3.40324 3.625 3.4032C3.62505 3.32131 3.64598 3.24108 3.68551 3.16983L13.0129 12.5L3.68543 21.8312C3.64576 21.76 3.62485 21.6796 3.625 21.5977ZM15.8153 12.5001L17.6364 10.6797L20.0595 12.0833C20.1325 12.1256 20.1931 12.1864 20.2352 12.2596C20.2773 12.3327 20.2995 12.4156 20.2995 12.5C20.2995 12.5844 20.2773 12.6673 20.2352 12.7404C20.1931 12.8136 20.1325 12.8744 20.0595 12.9167L17.6355 14.3203L15.8153 12.5001Z" fill="#2964FC" stroke="white"/>
</svg>
