<svg width="31" height="24" viewBox="0 0 31 24" fill="none" xmlns="http://www.w3.org/2000/svg">
<path d="M9.5608 24.0007C11.8998 24.0243 14.2203 23.595 16.3868 22.7379C18.5533 21.8809 20.5224 20.6131 22.1793 19.0087C23.8361 17.4043 25.1476 15.4953 26.0371 13.3932C26.9265 11.291 27.3763 9.03783 27.36 6.76501C27.36 6.49916 27.36 6.23332 27.36 5.98224C28.5568 5.11654 29.5861 4.05143 30.4 2.83639C29.2592 3.32568 28.0505 3.64915 26.8128 3.79639C28.1145 3.03615 29.0911 1.84609 29.564 0.443779C28.3385 1.15332 26.9965 1.6529 25.5968 1.9207C24.657 0.965446 23.4221 0.334262 22.0796 0.123001C20.7371 -0.0882603 19.3603 0.131942 18.1583 0.750168C16.9563 1.36839 15.9947 2.35087 15.4196 3.5484C14.8446 4.74593 14.6874 6.0931 14.972 7.38532C12.4968 7.26737 10.0743 6.64807 7.8598 5.56713C5.64533 4.48619 3.68782 2.96748 2.1128 1.10839C1.31539 2.44312 1.07114 4.02286 1.42974 5.52633C1.78833 7.02979 2.72284 8.3441 4.0432 9.20193C3.05094 9.17063 2.0811 8.90717 1.216 8.43393C1.22555 9.82664 1.7277 11.1738 2.63822 12.2494C3.54874 13.3251 4.81225 14.0638 6.2168 14.3416C5.2996 14.5824 4.33811 14.6178 3.4048 14.445C3.80532 15.6471 4.58101 16.6982 5.62421 17.4524C6.66741 18.2067 7.92638 18.6267 9.2264 18.6542C7.0435 20.3734 4.3296 21.3305 1.52 21.3718C1.01192 21.3734 0.504238 21.3438 0 21.2832C2.85508 23.0562 6.17239 23.9991 9.5608 24.0007Z" fill="#62688F"/>
</svg>
